# xmcd CD database file
#
# Track frame offsets:
#	150
#	21901
#	34033
#	55815
#	68755
#	86019
#	101195
#	113298
#	125866
#	139313
#	145909
#	160676
#	175854
#	188756
#	199492
#	217421
#	234747
#	249985
#	263631
#	275491
#
# Disc length: 3816 seconds
#
# Revision: 0
# Processed by: cddbd v1.4PL0 Copyright (c) Steve Scherf et al.
# Submitted via: Feurio! 1.63 - http://www.feurio.com
#
DISCID=2e0ee614
DTITLE=Raul Seixas - 20 Músicas do Século XX
DYEAR=1900
DGENRE=
TTITLE0=Eu nasci há 10 mil anos atras
TTITLE1=Morning Train
TTITLE2=Gita
TTITLE3=Sociedade Alternativa
TTITLE4=Metamorfose Ambulante
TTITLE5=A maçã
TTITLE6=Al Capone
TTITLE7=Metro Linha 743
TTITLE8=Medo da chuva
TTITLE9=Blue Moon of Kentucky
TTITLE10=Let Me sing, Let Me sing
TTITLE11=Eu também vou reclamar
TTITLE12=Ouro de Tolo
TTITLE13=As minas do rei salomão
TTITLE14=Mosca na sopa
TTITLE15=Tu es o MDC da minha vida
TTITLE16=Como vovó ja dizia (óculos escuros)
TTITLE17=Não pare na pista
TTITLE18=How could I know
TTITLE19=Tente outra vez
EXTD=
EXTT0=
EXTT1=
EXTT2=
EXTT3=
EXTT4=
EXTT5=
EXTT6=
EXTT7=
EXTT8=
EXTT9=
EXTT10=
EXTT11=
EXTT12=
EXTT13=
EXTT14=
EXTT15=
EXTT16=
EXTT17=
EXTT18=
EXTT19=
PLAYORDER=
